<?xml version="1.0" standalone="no"?>
<!DOCTYPE svg PUBLIC "-//W3C//DTD SVG 20010904//EN"
 "http://www.w3.org/TR/2001/REC-SVG-20010904/DTD/svg10.dtd">
<svg version="1.0" xmlns="http://www.w3.org/2000/svg"
 width="121.000000pt" height="135.000000pt" viewBox="0 0 121.000000 135.000000"
 preserveAspectRatio="xMidYMid meet">

<g transform="translate(0.000000,135.000000) scale(0.100000,-0.100000)"
fill="#000000" stroke="none">
<path d="M490 1305 c0 -10 -8 -24 -17 -31 -13 -10 -14 -13 -4 -14 8 0 19 -7
25 -16 18 -24 61 3 61 39 1 22 -3 26 -18 21 -10 -3 -24 0 -32 6 -12 10 -15 9
-15 -5z"/>
<path d="M730 1240 c-19 -4 -56 -11 -83 -15 -45 -6 -51 -11 -117 -93 -39 -48
-70 -89 -70 -93 0 -3 29 -1 65 5 54 9 69 17 98 48 21 23 49 40 78 48 51 14 59
20 100 72 l31 38 -34 -1 c-18 -1 -49 -5 -68 -9z"/>
<path d="M246 1184 c-19 -19 -20 -36 -4 -52 24 -24 78 -8 78 24 0 17 -28 44
-45 44 -7 0 -21 -7 -29 -16z"/>
<path d="M986 1178 c48 -149 64 -301 45 -414 -16 -95 -61 -238 -71 -228 -4 5
-10 47 -12 94 -5 87 -25 146 -54 157 -9 3 -39 -2 -68 -12 -48 -16 -55 -17
-107 -2 -80 24 -142 68 -257 184 -76 78 -104 100 -108 89 -10 -26 5 -86 38
-156 31 -65 44 -79 229 -255 138 -131 171 -272 103 -449 -8 -21 -13 -41 -10
-43 10 -10 83 21 146 62 138 89 241 267 275 479 34 209 1 373 -95 474 -45 47
-65 54 -54 20z"/>
<path d="M671 1094 c-115 -96 7 -270 143 -205 85 41 100 136 31 199 -30 28
-42 32 -89 32 -44 0 -60 -5 -85 -26z"/>
<path d="M190 945 c-10 -12 -10 -21 -2 -40 14 -31 56 -34 72 -5 24 44 -38 83
-70 45z"/>
<path d="M264 809 c-22 -4 -69 -20 -102 -35 -68 -30 -72 -38 -48 -101 8 -21
37 -110 66 -198 28 -88 58 -178 66 -200 l15 -41 102 4 c104 5 226 -11 262 -33
11 -7 32 -15 46 -19 24 -5 27 -3 33 32 10 62 7 164 -8 217 -18 69 -51 119
-127 190 -35 34 -82 81 -105 106 -61 67 -125 93 -200 78z"/>
<path d="M370 200 c-20 -5 -57 -18 -84 -30 -39 -16 -51 -18 -58 -8 -11 19 -10
0 2 -22 10 -18 12 -18 52 5 55 29 99 43 173 54 l60 9 -55 0 c-30 0 -71 -4 -90
-8z"/>
<path d="M538 203 c7 -3 16 -2 19 1 4 3 -2 6 -13 5 -11 0 -14 -3 -6 -6z"/>
</g>
</svg>
